<?xml version="1.0" standalone="no"?>
<!DOCTYPE svg PUBLIC "-//W3C//DTD SVG 20010904//EN"
 "http://www.w3.org/TR/2001/REC-SVG-20010904/DTD/svg10.dtd">
<svg version="1.0" xmlns="http://www.w3.org/2000/svg"
 width="400.000000pt" height="400.000000pt" viewBox="0 0 400.000000 400.000000"
 preserveAspectRatio="xMidYMid meet">
<metadata>
Created by potrace 1.15, written by Peter Selinger 2001-2017
</metadata>
<g transform="translate(0.000000,400.000000) scale(0.100000,-0.100000)"
fill="#000000" stroke="none">
<path d="M2165 3991 c-22 -9 -95 -87 -135 -146 -14 -20 -36 -51 -50 -69 -14
-19 -32 -44 -40 -56 -8 -13 -31 -44 -50 -71 -19 -27 -51 -71 -70 -99 -19 -28
-40 -56 -45 -63 -41 -48 -185 -260 -185 -272 0 -2 -11 -28 -24 -57 -47 -102
-60 -165 -60 -293 0 -98 4 -131 22 -182 28 -81 28 -86 -5 -38 -15 22 -32 46
-39 52 -7 7 -14 16 -16 20 -3 8 -65 62 -104 93 -31 23 -124 67 -184 85 -30 10
-66 22 -80 29 -28 12 -929 22 -988 11 -48 -9 -98 -64 -106 -117 -5 -33 -2 -52
18 -92 14 -28 34 -62 45 -76 11 -14 85 -113 165 -220 80 -107 149 -200 154
-205 5 -6 17 -24 28 -40 10 -17 24 -36 31 -43 7 -8 18 -23 24 -35 37 -68 206
-214 302 -260 121 -58 128 -60 251 -65 l118 -5 -88 -30 c-49 -16 -115 -47
-146 -68 -52 -36 -158 -136 -158 -150 0 -3 -10 -18 -23 -33 -35 -41 -127 -230
-127 -261 0 -9 -4 -23 -9 -33 -5 -9 -17 -42 -26 -72 -9 -30 -20 -64 -24 -75
-5 -11 -24 -67 -41 -125 -18 -58 -41 -127 -50 -155 -71 -201 -83 -248 -77
-299 6 -44 45 -91 95 -112 49 -20 34 -24 532 141 173 57 338 114 365 126 114
50 278 177 311 240 7 15 19 33 27 41 16 16 56 109 73 168 l12 45 1 -85 c1 -47
7 -107 15 -135 16 -60 57 -159 68 -163 4 -2 8 -8 8 -12 0 -32 211 -270 238
-270 5 0 22 -11 38 -25 16 -14 32 -25 36 -25 4 0 13 -6 20 -13 11 -11 256
-194 338 -252 15 -11 68 -48 116 -83 l89 -64 62 4 c70 4 105 27 129 85 21 49
20 796 -1 931 -29 181 -84 299 -193 417 -15 17 -41 39 -57 49 -16 11 -34 23
-40 28 -5 5 -19 15 -30 23 -18 13 -17 14 15 4 19 -6 44 -14 55 -18 102 -40
223 -42 358 -6 115 30 209 78 333 167 17 13 44 32 60 43 16 11 38 28 48 37 11
10 23 18 27 18 4 0 14 6 21 13 7 7 97 72 200 146 103 73 203 149 223 167 33
33 35 38 35 105 0 119 -3 120 -520 278 -58 18 -114 36 -125 41 -118 48 -345
100 -435 100 -45 0 -160 -20 -215 -38 -62 -20 -113 -48 -215 -119 -25 -17 -25
-17 -10 2 8 11 17 22 20 25 14 14 60 92 80 135 39 85 52 154 52 277 0 131 -7
166 -67 353 -24 72 -57 177 -75 235 -17 58 -35 114 -40 125 -4 11 -28 82 -52
159 -34 110 -50 145 -75 171 -41 41 -107 56 -158 36z m-89 -1379 c44 -65 43
-207 -4 -351 -42 -131 -111 -194 -159 -146 -42 43 -56 209 -27 327 16 68 58
157 87 189 29 31 76 22 103 -19z m-597 -367 c151 -62 276 -183 256 -246 -4
-11 -23 -26 -42 -34 -30 -13 -47 -13 -97 -4 -34 7 -65 16 -70 20 -6 5 -17 9
-25 9 -28 0 -139 64 -192 110 -80 71 -101 133 -56 165 32 24 143 14 226 -20z
m1079 -156 c55 -14 112 -53 112 -77 -1 -9 -9 -27 -20 -40 -21 -25 -124 -82
-149 -82 -9 0 -21 -4 -26 -8 -6 -5 -47 -14 -93 -21 -127 -19 -255 14 -269 67
-23 95 274 202 445 161z m-804 -320 c46 -21 43 -79 -10 -170 -32 -53 -156
-189 -174 -189 -5 0 -15 -6 -22 -13 -24 -23 -85 -47 -121 -47 -59 0 -67 7 -67
58 0 113 180 308 330 359 19 6 36 12 37 12 1 1 13 -4 27 -10z m312 -54 c91
-46 187 -194 218 -338 20 -87 11 -138 -26 -158 -37 -20 -118 35 -177 120 -64
90 -100 185 -108 281 -4 46 -1 60 17 83 25 31 36 33 76 12z"/>
</g>
</svg>
